<?xml version="1.0" encoding="iso-8859-1"?>
<!-- Generator: Adobe Illustrator 16.0.0, SVG Export Plug-In . SVG Version: 6.00 Build 0)  -->
<!DOCTYPE svg PUBLIC "-//W3C//DTD SVG 1.1//EN" "http://www.w3.org/Graphics/SVG/1.1/DTD/svg11.dtd">
<svg version="1.1" id="Capa_1" xmlns="http://www.w3.org/2000/svg" xmlns:xlink="http://www.w3.org/1999/xlink" x="0px" y="0px"
	 width="92.762px" height="92.762px" viewBox="0 0 92.762 92.762" style="enable-background:new 0 0 92.762 92.762;"
	 xml:space="preserve">
<g>
	<g>
		<path d="M25.669,16.669h-4.764v14.747h3.646c3.519,0,6.101-0.612,7.746-1.835c1.645-1.225,2.468-3.137,2.468-5.739
			c0-2.409-0.737-4.207-2.21-5.394C31.082,17.264,28.787,16.669,25.669,16.669z"/>
		<path d="M66.994,0L0,0.001v66.993v25.768h92.762V25.768C92.762,11.536,81.227,0,66.994,0z M37.52,33.684
			c-2.87,2.334-6.954,3.5-12.252,3.5h-4.362v15.694H14.05V10.931h12.079c5.24,0,9.166,1.072,11.778,3.212
			c2.61,2.143,3.916,5.3,3.916,9.471C41.822,27.993,40.389,31.351,37.52,33.684z M62.062,83.607
			c-11.507,0-20.834-9.328-20.834-20.834c0-11.507,9.328-20.835,20.834-20.835v21.728l19.215,7.176
			C78.123,78.341,70.709,83.607,62.062,83.607z M85.449,67.107l-19.213-7.175V38.204c11.506,0,20.834,9.327,20.834,20.834
			C87.07,61.9,86.492,64.625,85.449,67.107z"/>
	</g>
</g>

</svg>
