<?xml version="1.0" encoding="iso-8859-1"?>
<!-- Generator: Adobe Illustrator 19.0.0, SVG Export Plug-In . SVG Version: 6.00 Build 0)  -->
<svg version="1.1" id="Capa_1" xmlns="http://www.w3.org/2000/svg" xmlns:xlink="http://www.w3.org/1999/xlink" x="0px" y="0px"
	 viewBox="0 0 512 512" style="enable-background:new 0 0 512 512;" xml:space="preserve">
<g>
	<g>
		<path d="M411.014,0H100.986C86.598,0,74.893,11.705,74.894,26.093v459.814c0,14.388,11.705,26.093,26.092,26.093h310.028
			c14.388,0,26.092-11.706,26.092-26.094V26.093C437.106,11.705,425.402,0,411.014,0z M419.794,485.906
			c0,4.841-3.938,8.781-8.78,8.781H100.986c-4.841,0-8.78-3.939-8.78-8.781V26.093c0-4.841,3.939-8.781,8.78-8.781h310.028
			c4.841,0,8.78,3.939,8.78,8.781V485.906z"/>
	</g>
</g>
<g>
	<g>
		<path d="M390.157,43.743H121.843c-4.78,0-8.656,3.876-8.656,8.656v94.335c0,4.78,3.876,8.656,8.656,8.656h268.314
			c4.78,0,8.656-3.876,8.656-8.656V52.399C398.813,47.619,394.937,43.743,390.157,43.743z M381.501,138.078H130.499V61.056h251.002
			V138.078z"/>
	</g>
</g>
<g>
	<g>
		<path d="M161.304,187.814c-3.691-1.561-7.607-2.352-11.638-2.352c-16.022,0-29.054,12.492-29.799,28.542
			c-0.008,0.056-0.014,0.114-0.019,0.17c-0.039,0.303-0.076,0.703-0.076,1.182c0,5.99,1.768,11.771,5.112,16.719
			c5.574,8.249,14.838,13.174,24.783,13.174c4.031,0,7.946-0.792,11.637-2.352c11.09-4.691,18.256-15.501,18.256-27.541
			S172.393,192.505,161.304,187.814z M154.561,226.95c-1.546,0.655-3.193,0.986-4.895,0.986c-4.186,0-8.089-2.075-10.438-5.553
			c-1.326-1.961-2.06-4.238-2.137-6.61c0.032-0.303,0.056-0.601,0.066-0.879c0.25-6.797,5.746-12.121,12.509-12.121
			c1.702,0,3.349,0.331,4.894,0.985c4.669,1.976,7.687,6.528,7.687,11.597C162.247,220.424,159.229,224.976,154.561,226.95z"/>
	</g>
</g>
<g>
	<g>
		<path d="M241.694,194.219c-5.645-5.647-13.152-8.757-21.138-8.757c-16.03,0-29.068,12.505-29.799,28.54
			c-0.009,0.063-0.015,0.125-0.022,0.189c-0.038,0.299-0.074,0.694-0.074,1.164c0,5.989,1.767,11.77,5.11,16.719
			c5.572,8.249,14.838,13.174,24.783,13.174c7.988,0,15.495-3.11,21.139-8.754c5.646-5.646,8.757-13.153,8.757-21.139
			C250.45,207.371,247.34,199.864,241.694,194.219z M229.449,224.253c-2.374,2.375-5.534,3.683-8.894,3.683
			c-4.186,0-8.088-2.076-10.437-5.553c-1.325-1.962-2.06-4.24-2.137-6.613c0.032-0.294,0.056-0.588,0.066-0.875
			c0.25-6.796,5.745-12.12,12.508-12.12c3.361,0,6.519,1.308,8.896,3.685c2.377,2.377,3.685,5.536,3.685,8.896
			C233.136,218.716,231.827,221.875,229.449,224.253z"/>
	</g>
</g>
<g>
	<g>
		<path d="M297.461,186.07c-1.969-0.404-3.994-0.608-6.017-0.608c-16.019,0-29.05,12.49-29.798,28.535
			c-0.009,0.065-0.016,0.131-0.023,0.197c-0.037,0.3-0.072,0.694-0.072,1.162c0,5.99,1.768,11.773,5.111,16.718
			c5.571,8.248,14.836,13.174,24.782,13.174c2.019,0,4.041-0.203,6.017-0.606c13.836-2.833,23.877-15.149,23.877-29.286
			C321.338,201.218,311.295,188.902,297.461,186.07z M293.994,227.68c-0.832,0.169-1.69,0.255-2.55,0.255
			c-4.186,0-8.087-2.075-10.437-5.554c-1.324-1.96-2.06-4.236-2.137-6.609c0.034-0.301,0.057-0.597,0.065-0.879
			c0.251-6.796,5.746-12.12,12.509-12.12c0.859,0,1.715,0.085,2.545,0.255c0,0,0,0,0.001,0c5.815,1.19,10.036,6.375,10.036,12.326
			C304.025,221.306,299.803,226.489,293.994,227.68z"/>
	</g>
</g>
<g>
	<g>
		<path d="M368.351,186.069c-1.969-0.404-3.993-0.608-6.017-0.608c-16.484,0-29.894,13.411-29.894,29.894
			c0,5.99,1.767,11.771,5.11,16.719c0,0.001,0,0.001,0.001,0.001c5.574,8.248,14.839,13.173,24.783,13.173
			c2.02,0,4.043-0.205,6.016-0.607c13.835-2.832,23.877-15.148,23.877-29.286C392.227,201.217,382.185,188.9,368.351,186.069z
			 M364.881,227.681c-0.831,0.169-1.688,0.255-2.548,0.255c-4.186,0-8.088-2.076-10.439-5.554c-1.401-2.075-2.141-4.505-2.143-7.027
			c0-6.937,5.644-12.581,12.582-12.581c0.859,0,1.715,0.085,2.545,0.255c5.815,1.19,10.036,6.374,10.036,12.326
			C374.912,221.307,370.691,226.491,364.881,227.681z"/>
	</g>
</g>
<g>
	<g>
		<path d="M161.302,262.243c-3.692-1.562-7.608-2.353-11.638-2.353c-0.603,0-1.106,0.054-1.451,0.101
			c-15.232,0.741-27.577,13.073-28.343,28.345c-0.043,0.326-0.1,0.835-0.1,1.449c0,2.026,0.205,4.05,0.608,6.017
			c2.832,13.835,15.148,23.877,29.286,23.877c7.985,0,15.492-3.11,21.136-8.756c5.647-5.646,8.757-13.153,8.757-21.139
			C179.558,277.744,172.392,266.933,161.302,262.243z M158.561,298.681c-2.376,2.376-5.536,3.684-8.895,3.684
			c-5.952,0-11.136-4.221-12.326-10.038c-0.143-0.699-0.226-1.416-0.249-2.14c0.028-0.239,0.056-0.538,0.067-0.861
			c0.24-6.517,5.532-11.809,12.039-12.049c0.289-0.011,0.573-0.035,0.867-0.068c1.56,0.048,3.072,0.375,4.498,0.979
			c4.669,1.975,7.687,6.527,7.687,11.596C162.247,293.144,160.938,296.304,158.561,298.681z"/>
	</g>
</g>
<g>
	<g>
		<path d="M241.693,268.646c-5.646-5.647-13.153-8.757-21.139-8.757c-0.604,0-1.106,0.054-1.452,0.101
			c-15.238,0.743-27.587,13.084-28.342,28.347c-0.043,0.326-0.1,0.834-0.1,1.447c0,2.026,0.204,4.05,0.608,6.016
			c2.831,13.836,15.147,23.878,29.285,23.878c9.502,0,18.535-4.63,24.163-12.386c3.749-5.167,5.732-11.22,5.732-17.508
			C250.449,281.798,247.339,274.291,241.693,268.646z M230.705,297.123c-2.417,3.332-6.117,5.242-10.151,5.242
			c-5.951,0-11.135-4.221-12.325-10.038c-0.144-0.7-0.227-1.421-0.25-2.148c0.034-0.288,0.057-0.575,0.068-0.855
			c0.24-6.516,5.531-11.808,12.039-12.048c0.289-0.011,0.573-0.035,0.866-0.068c3.211,0.097,6.216,1.396,8.499,3.679
			c2.377,2.377,3.685,5.537,3.685,8.896C233.136,292.395,232.295,294.932,230.705,297.123z"/>
	</g>
</g>
<g>
	<g>
		<path d="M297.46,260.497c-0.001,0-0.003,0-0.005-0.001c-1.975-0.404-3.997-0.607-6.011-0.607c-0.604,0-1.106,0.054-1.451,0.101
			c-15.233,0.741-27.578,13.073-28.343,28.345c-0.043,0.327-0.099,0.835-0.099,1.449c0,2.027,0.204,4.052,0.607,6.016
			c2.832,13.836,15.148,23.878,29.286,23.878c7.985,0,15.492-3.11,21.136-8.756c5.648-5.646,8.758-13.153,8.758-21.139
			C321.338,275.646,311.295,263.329,297.46,260.497z M300.339,298.681c-2.376,2.376-5.536,3.684-8.895,3.684
			c-5.952,0-11.135-4.221-12.326-10.038c-0.142-0.698-0.225-1.415-0.248-2.14c0.027-0.239,0.056-0.538,0.066-0.862
			c0.241-6.516,5.532-11.808,12.039-12.048c0.29-0.011,0.573-0.035,0.867-0.068c0.721,0.022,1.442,0.106,2.149,0.25
			c5.815,1.19,10.036,6.374,10.036,12.325C304.025,293.144,302.716,296.304,300.339,298.681z"/>
	</g>
</g>
<g>
	<g>
		<path d="M368.349,260.497c-0.001,0-0.002,0-0.004,0c-1.974-0.405-3.996-0.608-6.011-0.608c-0.604,0-1.106,0.054-1.45,0.101
			c-15.978,0.77-28.444,13.79-28.444,29.794c0,2.027,0.205,4.052,0.607,6.016c2.832,13.836,15.148,23.878,29.287,23.878
			c7.984,0,15.49-3.11,21.136-8.756c5.647-5.645,8.757-13.152,8.757-21.139C392.227,275.646,382.185,263.329,368.349,260.497z
			 M371.229,298.681c-2.377,2.376-5.536,3.685-8.895,3.685c-5.952,0-11.136-4.221-12.328-10.038
			c-0.169-0.827-0.254-1.681-0.254-2.544c0-6.764,5.324-12.259,12.112-12.508c0.289-0.011,0.572-0.035,0.865-0.068
			c0.723,0.023,1.446,0.107,2.153,0.251c5.814,1.192,10.033,6.375,10.033,12.325C374.914,293.147,373.606,296.306,371.229,298.681z"
			/>
	</g>
</g>
<g>
	<g>
		<path d="M161.305,336.671c-0.001,0-0.001,0-0.001,0c-3.69-1.561-7.606-2.352-11.638-2.352c-15.989,0-29.002,12.444-29.795,28.448
			c-0.043,0.325-0.1,0.833-0.1,1.447c0,16.483,13.411,29.893,29.894,29.893c4.028,0,7.944-0.791,11.638-2.352
			c11.09-4.691,18.256-15.501,18.256-27.541C179.56,352.175,172.394,341.364,161.305,336.671z M154.562,375.809
			c-1.548,0.654-3.196,0.986-4.897,0.986c-6.803,0-12.362-5.427-12.575-12.178c0.028-0.24,0.056-0.538,0.067-0.862
			c0.251-6.797,5.747-12.122,12.509-12.122c1.702,0,3.349,0.331,4.894,0.985c4.669,1.976,7.687,6.528,7.687,11.597
			C162.247,369.284,159.229,373.836,154.562,375.809z"/>
	</g>
</g>
<g>
	<g>
		<path d="M237.275,339.43c0-0.001-0.001-0.001-0.001-0.001c-4.948-3.344-10.729-5.11-16.72-5.11
			c-15.996,0-29.011,12.455-29.795,28.449c-0.043,0.326-0.098,0.833-0.098,1.446c0,16.483,13.411,29.893,29.893,29.893
			c7.986,0,15.494-3.11,21.135-8.755c5.647-5.646,8.758-13.152,8.758-21.139C250.448,354.269,245.523,345.004,237.275,339.43z
			 M229.449,373.112c-2.374,2.375-5.534,3.683-8.894,3.683c-6.805,0-12.367-5.432-12.574-12.187
			c0.032-0.289,0.056-0.575,0.066-0.854c0.251-6.796,5.746-12.121,12.508-12.121c2.522,0,4.952,0.74,7.028,2.141
			c3.478,2.35,5.554,6.253,5.554,10.439C233.136,367.575,231.827,370.735,229.449,373.112z"/>
	</g>
</g>
<g>
	<g>
		<path d="M297.46,334.926c-0.001,0-0.003,0-0.005-0.001c-1.971-0.403-3.993-0.606-6.011-0.606
			c-15.989,0-29.002,12.444-29.794,28.448c-0.043,0.326-0.099,0.833-0.099,1.447c0,16.483,13.411,29.893,29.893,29.893
			c2.018,0,4.04-0.203,6.016-0.607c13.836-2.832,23.878-15.148,23.878-29.286S311.295,337.758,297.46,334.926z M293.994,376.539
			c-0.834,0.17-1.692,0.256-2.55,0.256c-6.803,0-12.361-5.427-12.574-12.178c0.028-0.24,0.056-0.538,0.065-0.863
			c0.252-6.796,5.747-12.121,12.509-12.121c0.856,0,1.713,0.085,2.546,0.255c5.815,1.19,10.036,6.374,10.036,12.326
			C304.025,370.165,299.803,375.349,293.994,376.539z"/>
	</g>
</g>
<g>
	<g>
		<path d="M368.349,334.926c-0.001,0-0.002,0-0.004,0c-1.97-0.404-3.993-0.607-6.011-0.607c-16.484,0-29.894,13.411-29.894,29.894
			c0,16.483,13.411,29.893,29.894,29.893c2.018,0,4.04-0.203,6.015-0.607c13.836-2.832,23.878-15.148,23.878-29.286
			C392.227,350.074,382.185,337.758,368.349,334.926z M364.882,376.54c-0.833,0.169-1.69,0.255-2.548,0.255
			c-6.938,0-12.582-5.644-12.582-12.581c0-6.938,5.644-12.582,12.582-12.582c0.858,0,1.715,0.087,2.547,0.255
			c5.814,1.192,10.033,6.375,10.033,12.326C374.913,370.167,370.692,375.349,364.882,376.54z"/>
	</g>
</g>
<g>
	<g>
		<path d="M161.305,411.102c-0.001,0-0.001,0-0.001,0c-3.69-1.561-7.606-2.352-11.638-2.352c-15.989,0-29.002,12.445-29.795,28.448
			c-0.043,0.325-0.1,0.833-0.1,1.447c0,16.483,13.411,29.893,29.894,29.893c4.031,0,7.946-0.792,11.638-2.353
			c11.09-4.691,18.256-15.5,18.256-27.54C179.56,426.605,172.394,415.795,161.305,411.102z M154.559,450.239
			c-1.546,0.654-3.193,0.986-4.894,0.986c-6.804,0-12.363-5.427-12.575-12.179c0.028-0.239,0.056-0.537,0.066-0.861
			c0.251-6.797,5.747-12.122,12.509-12.122c1.702,0,3.349,0.331,4.894,0.985c4.669,1.976,7.687,6.528,7.687,11.597
			C162.246,443.713,159.228,448.264,154.559,450.239z"/>
	</g>
</g>
<g>
	<g>
		<path d="M241.692,417.504c-5.646-5.646-13.153-8.755-21.137-8.755c-15.997,0-29.013,12.454-29.795,28.449
			c-0.043,0.326-0.098,0.833-0.098,1.446c0,16.483,13.411,29.893,29.893,29.893c7.985,0,15.492-3.11,21.137-8.756
			c5.647-5.646,8.757-13.153,8.757-21.137C250.449,430.66,247.339,423.152,241.692,417.504z M229.45,447.54
			c-2.376,2.376-5.535,3.684-8.895,3.684c-6.806,0-12.367-5.432-12.575-12.187c0.034-0.289,0.057-0.575,0.067-0.855
			c0.251-6.796,5.746-12.121,12.508-12.121c3.361,0,6.52,1.308,8.895,3.683c2.377,2.378,3.686,5.538,3.686,8.899
			S231.827,445.163,229.45,447.54z"/>
	</g>
</g>
<g>
	<g>
		<path d="M297.46,409.357c-0.001,0-0.003,0-0.005-0.001c-1.971-0.403-3.993-0.606-6.011-0.606
			c-15.989,0-29.002,12.445-29.794,28.448c-0.043,0.326-0.099,0.833-0.099,1.447c0,16.483,13.411,29.893,29.893,29.893
			c2.021,0,4.046-0.206,6.016-0.608c13.836-2.832,23.878-15.148,23.878-29.285C321.338,424.506,311.295,412.188,297.46,409.357z
			 M293.988,450.968c-0.831,0.17-1.687,0.256-2.545,0.256c-6.803,0-12.362-5.427-12.574-12.179c0.027-0.239,0.056-0.537,0.065-0.862
			c0.252-6.796,5.747-12.121,12.509-12.121c0.856,0,1.713,0.085,2.546,0.255c5.815,1.19,10.036,6.374,10.036,12.326
			C304.025,444.595,299.804,449.778,293.988,450.968z"/>
	</g>
</g>
<g>
	<g>
		<path d="M368.349,409.357c-0.001,0-0.002,0-0.004,0c-1.97-0.404-3.993-0.607-6.011-0.607c-16.484,0-29.894,13.411-29.894,29.894
			c0,16.483,13.411,29.893,29.894,29.893c2.022,0,4.047-0.206,6.015-0.608c13.836-2.832,23.878-15.147,23.878-29.285
			C392.227,424.505,382.185,412.188,368.349,409.357z M364.876,450.969c-0.83,0.169-1.685,0.255-2.543,0.255
			c-6.938,0-12.582-5.644-12.582-12.581c0-6.938,5.644-12.582,12.582-12.582c0.858,0,1.715,0.087,2.548,0.255
			c5.814,1.192,10.033,6.375,10.033,12.326S370.693,449.778,364.876,450.969z"/>
	</g>
</g>

</svg>
