<?xml version="1.0" encoding="iso-8859-1"?>
<!-- Generator: Adobe Illustrator 19.0.0, SVG Export Plug-In . SVG Version: 6.00 Build 0)  -->
<svg version="1.1" id="Layer_1" xmlns="http://www.w3.org/2000/svg" xmlns:xlink="http://www.w3.org/1999/xlink" x="0px" y="0px"
	 viewBox="0 0 512 512" style="enable-background:new 0 0 512 512;" xml:space="preserve">
<g>
	<g>
		<path d="M461.708,432.49L320,199.677V62.035c12.389-4.418,21.333-16.147,21.333-30.035c0-17.646-14.354-32-32-32H202.667
			c-17.646,0-32,14.354-32,32c0,13.888,8.944,25.617,21.333,30.035v137.642L50.271,432.5c-4.979,8.198-7.604,17.594-7.604,27.229
			c0,28.823,23.458,52.271,52.271,52.271h322.125c28.813,0,52.271-23.448,52.271-52.333
			C469.333,450.094,466.708,440.698,461.708,432.49z M202.667,21.333h106.667C315.208,21.333,320,26.115,320,32
			s-4.792,10.667-10.667,10.667H202.667C196.792,42.667,192,37.885,192,32S196.792,21.333,202.667,21.333z M211.771,208.208
			c1.021-1.667,1.563-3.583,1.563-5.542V64h85.333v138.667c0,1.958,0.542,3.875,1.563,5.542L329.318,256H182.68L211.771,208.208z
			 M417.063,490.667H94.937c-17.063,0-30.937-13.875-30.937-31c0-5.667,1.562-11.24,4.5-16.094l101.193-166.24h172.609
			l101.177,166.229C446.438,448.427,448,454,448,459.729C448,476.792,434.125,490.667,417.063,490.667z"/>
	</g>
</g>

</svg>
